<svg version="1.1" xmlns="http://www.w3.org/2000/svg" viewBox="0 0 302.20699069715624 302.20699069715624" width="302.20699069715624" height="302.20699069715624" class="excalidraw-svg">
  <!-- svg-source:excalidraw -->
  
  <defs>
    <style class="style-fonts">
      
    </style>
    
  </defs>
  <rect x="0" y="0" width="302.20699069715624" height="302.20699069715624" fill="#ffffff"></rect><g stroke-linecap="round" transform="translate(38.506781051102166 38.546006806312846) rotate(0 112.7767793125887 112.7767793125887)"><path d="M225.55 112.78 C225.55 116.25, 225.39 119.73, 225.07 123.18 C224.75 126.64, 224.27 130.09, 223.63 133.5 C223 136.91, 222.2 140.3, 221.25 143.64 C220.3 146.98, 219.19 150.28, 217.94 153.52 C216.68 156.75, 215.28 159.94, 213.73 163.05 C212.18 166.15, 210.49 169.2, 208.66 172.15 C206.84 175.1, 204.86 177.97, 202.77 180.74 C200.68 183.51, 198.46 186.19, 196.12 188.75 C193.78 191.32, 191.32 193.78, 188.75 196.12 C186.19 198.46, 183.51 200.68, 180.74 202.77 C177.97 204.86, 175.1 206.84, 172.15 208.66 C169.2 210.49, 166.15 212.18, 163.05 213.73 C159.94 215.28, 156.75 216.68, 153.52 217.94 C150.28 219.19, 146.98 220.3, 143.64 221.25 C140.3 222.2, 136.91 223, 133.5 223.63 C130.09 224.27, 126.64 224.75, 123.18 225.07 C119.73 225.39, 116.25 225.55, 112.78 225.55 C109.31 225.55, 105.82 225.39, 102.37 225.07 C98.92 224.75, 95.46 224.27, 92.05 223.63 C88.64 223, 85.25 222.2, 81.91 221.25 C78.58 220.3, 75.27 219.19, 72.04 217.94 C68.8 216.68, 65.61 215.28, 62.51 213.73 C59.4 212.18, 56.36 210.49, 53.41 208.66 C50.46 206.84, 47.58 204.86, 44.81 202.77 C42.05 200.68, 39.36 198.46, 36.8 196.12 C34.24 193.78, 31.77 191.32, 29.43 188.75 C27.1 186.19, 24.87 183.51, 22.78 180.74 C20.69 177.97, 18.72 175.1, 16.89 172.15 C15.07 169.2, 13.37 166.15, 11.82 163.05 C10.28 159.94, 8.87 156.75, 7.62 153.52 C6.36 150.28, 5.25 146.98, 4.31 143.64 C3.36 140.3, 2.56 136.91, 1.92 133.5 C1.28 130.09, 0.8 126.64, 0.48 123.18 C0.16 119.73, 0 116.25, 0 112.78 C0 109.31, 0.16 105.82, 0.48 102.37 C0.8 98.92, 1.28 95.46, 1.92 92.05 C2.56 88.64, 3.36 85.25, 4.31 81.91 C5.25 78.58, 6.36 75.27, 7.62 72.04 C8.87 68.8, 10.28 65.61, 11.82 62.51 C13.37 59.4, 15.07 56.36, 16.89 53.41 C18.72 50.46, 20.69 47.58, 22.78 44.81 C24.87 42.05, 27.1 39.36, 29.43 36.8 C31.77 34.24, 34.24 31.77, 36.8 29.43 C39.36 27.1, 42.05 24.87, 44.81 22.78 C47.58 20.69, 50.46 18.72, 53.41 16.89 C56.36 15.07, 59.4 13.37, 62.51 11.82 C65.61 10.28, 68.8 8.87, 72.04 7.62 C75.27 6.36, 78.58 5.25, 81.91 4.31 C85.25 3.36, 88.64 2.56, 92.05 1.92 C95.46 1.28, 98.92 0.8, 102.37 0.48 C105.82 0.16, 109.31 0, 112.78 0 C116.25 0, 119.73 0.16, 123.18 0.48 C126.64 0.8, 130.09 1.28, 133.5 1.92 C136.91 2.56, 140.3 3.36, 143.64 4.31 C146.98 5.25, 150.28 6.36, 153.52 7.62 C156.75 8.87, 159.94 10.28, 163.05 11.82 C166.15 13.37, 169.2 15.07, 172.15 16.89 C175.1 18.72, 177.97 20.69, 180.74 22.78 C183.51 24.87, 186.19 27.1, 188.75 29.43 C191.32 31.77, 193.78 34.24, 196.12 36.8 C198.46 39.36, 200.68 42.05, 202.77 44.81 C204.86 47.58, 206.84 50.46, 208.66 53.41 C210.49 56.36, 212.18 59.4, 213.73 62.51 C215.28 65.61, 216.68 68.8, 217.94 72.04 C219.19 75.27, 220.3 78.58, 221.25 81.91 C222.2 85.25, 223 88.64, 223.63 92.05 C224.27 95.46, 224.75 98.92, 225.07 102.37 C225.39 105.82, 225.47 111.04, 225.55 112.78 C225.63 114.51, 225.63 111.04, 225.55 112.78" stroke="#1e1e1e" stroke-width="2" fill="none"></path></g><g stroke-linecap="round" transform="translate(10.085723876953125 10.6571044921875) rotate(0 140.57141876220703 140.57141876220703)"><path d="M141 0 L281.14 141 L141 281.14 L0 141" stroke="none" stroke-width="0" fill="#ffffff" fill-rule="evenodd"></path><path d="M141 0 C175.37 34.58, 209.75 69.17, 281.14 141 M141 0 C185.58 44.85, 230.15 89.7, 281.14 141 M281.14 141 C241.7 180.44, 202.26 219.88, 141 281.14 M281.14 141 C243.88 178.27, 206.61 215.54, 141 281.14 M141 281.14 C104.59 244.95, 68.18 208.76, 0 141 M141 281.14 C92.3 232.74, 43.61 184.34, 0 141 M0 141 C38.91 102.09, 77.82 63.18, 141 0 M0 141 C33.51 107.49, 67.03 73.97, 141 0" stroke="#1e1e1e" stroke-width="2" fill="none"></path></g><g stroke-linecap="round" transform="translate(10 10) rotate(0 141.10349534857812 141.10349534857812)"><path d="M282.21 141.1 C282.21 144.99, 282.05 148.88, 281.73 152.76 C281.4 156.63, 280.92 160.5, 280.28 164.33 C279.64 168.16, 278.84 171.98, 277.89 175.74 C276.94 179.51, 275.82 183.25, 274.56 186.92 C273.3 190.59, 271.88 194.23, 270.32 197.78 C268.76 201.34, 267.05 204.85, 265.2 208.26 C263.35 211.68, 261.36 215.03, 259.23 218.28 C257.11 221.53, 254.84 224.71, 252.45 227.77 C250.07 230.84, 247.55 233.81, 244.92 236.67 C242.29 239.53, 239.53 242.29, 236.67 244.92 C233.81 247.55, 230.84 250.07, 227.77 252.45 C224.71 254.84, 221.53 257.11, 218.28 259.23 C215.03 261.36, 211.68 263.35, 208.26 265.2 C204.85 267.05, 201.34 268.76, 197.78 270.32 C194.23 271.88, 190.59 273.3, 186.92 274.56 C183.25 275.82, 179.51 276.94, 175.74 277.89 C171.98 278.84, 168.16 279.64, 164.33 280.28 C160.5 280.92, 156.63 281.4, 152.76 281.73 C148.88 282.05, 144.99 282.21, 141.1 282.21 C137.22 282.21, 133.32 282.05, 129.45 281.73 C125.58 281.4, 121.71 280.92, 117.88 280.28 C114.05 279.64, 110.23 278.84, 106.46 277.89 C102.7 276.94, 98.96 275.82, 95.29 274.56 C91.61 273.3, 87.98 271.88, 84.42 270.32 C80.87 268.76, 77.36 267.05, 73.95 265.2 C70.53 263.35, 67.18 261.36, 63.93 259.23 C60.68 257.11, 57.5 254.84, 54.44 252.45 C51.37 250.07, 48.39 247.55, 45.54 244.92 C42.68 242.29, 39.92 239.53, 37.29 236.67 C34.66 233.81, 32.14 230.84, 29.75 227.77 C27.37 224.71, 25.1 221.53, 22.98 218.28 C20.85 215.03, 18.86 211.68, 17.01 208.26 C15.16 204.85, 13.44 201.34, 11.88 197.78 C10.32 194.23, 8.91 190.59, 7.65 186.92 C6.38 183.25, 5.27 179.51, 4.32 175.74 C3.36 171.98, 2.56 168.16, 1.92 164.33 C1.29 160.5, 0.8 156.63, 0.48 152.76 C0.16 148.88, 0 144.99, 0 141.1 C0 137.22, 0.16 133.32, 0.48 129.45 C0.8 125.58, 1.29 121.71, 1.92 117.88 C2.56 114.05, 3.36 110.23, 4.32 106.46 C5.27 102.7, 6.38 98.96, 7.65 95.29 C8.91 91.61, 10.32 87.98, 11.88 84.42 C13.44 80.87, 15.16 77.36, 17.01 73.95 C18.86 70.53, 20.85 67.18, 22.98 63.93 C25.1 60.68, 27.37 57.5, 29.75 54.44 C32.14 51.37, 34.66 48.39, 37.29 45.54 C39.92 42.68, 42.68 39.92, 45.54 37.29 C48.39 34.66, 51.37 32.14, 54.44 29.75 C57.5 27.37, 60.68 25.1, 63.93 22.98 C67.18 20.85, 70.53 18.86, 73.95 17.01 C77.36 15.16, 80.87 13.44, 84.42 11.88 C87.98 10.32, 91.61 8.91, 95.29 7.65 C98.96 6.38, 102.7 5.27, 106.46 4.32 C110.23 3.36, 114.05 2.56, 117.88 1.92 C121.71 1.29, 125.58 0.8, 129.45 0.48 C133.32 0.16, 137.22 0, 141.1 0 C144.99 0, 148.88 0.16, 152.76 0.48 C156.63 0.8, 160.5 1.29, 164.33 1.92 C168.16 2.56, 171.98 3.36, 175.74 4.32 C179.51 5.27, 183.25 6.38, 186.92 7.65 C190.59 8.91, 194.23 10.32, 197.78 11.88 C201.34 13.44, 204.85 15.16, 208.26 17.01 C211.68 18.86, 215.03 20.85, 218.28 22.98 C221.53 25.1, 224.71 27.37, 227.77 29.75 C230.84 32.14, 233.81 34.66, 236.67 37.29 C239.53 39.92, 242.29 42.68, 244.92 45.54 C247.55 48.39, 250.07 51.37, 252.45 54.44 C254.84 57.5, 257.11 60.68, 259.23 63.93 C261.36 67.18, 263.35 70.53, 265.2 73.95 C267.05 77.36, 268.76 80.87, 270.32 84.42 C271.88 87.98, 273.3 91.61, 274.56 95.29 C275.82 98.96, 276.94 102.7, 277.89 106.46 C278.84 110.23, 279.64 114.05, 280.28 117.88 C280.92 121.71, 281.4 125.58, 281.73 129.45 C282.05 133.32, 282.21 137.22, 282.21 141.1" stroke="#1e1e1e" stroke-width="2" fill="none"></path></g><g stroke-linecap="round"><g transform="translate(291.6142380160021 151.31068189171498) rotate(0 -139.6108609246953 0)"><path d="M0 0 C-66.76 0, -133.52 0, -279.22 0 M0 0 C-73.49 0, -146.99 0, -279.22 0" stroke="#1e1e1e" stroke-width="2" fill="none"></path></g></g><mask></mask><g stroke-linecap="round"><g transform="translate(151.0997779903243 10.326360012567534) rotate(0 0 139.5229881960546)"><path d="M0 0 C0 107.45, 0 214.9, 0 279.05 M0 0 C0 91.03, 0 182.05, 0 279.05" stroke="#1e1e1e" stroke-width="2" fill="none"></path></g></g><mask></mask><g stroke-linecap="round" transform="translate(56.391879809715846 56.204712551089145) rotate(0 94.58413360695351 94.58413360695351)"><path d="M95 0 L189.17 95 L95 189.17 L0 95" stroke="none" stroke-width="0" fill="#ffffff" fill-rule="evenodd"></path><path d="M95 0 C131.14 36.46, 167.28 72.92, 189.17 95 M95 0 C130.85 36.17, 166.7 72.33, 189.17 95 M189.17 95 C156.93 127.24, 124.7 159.47, 95 189.17 M189.17 95 C165.22 118.95, 141.27 142.9, 95 189.17 M95 189.17 C57.51 152.01, 20.02 114.85, 0 95 M95 189.17 C69.54 163.93, 44.08 138.7, 0 95 M0 95 C20.72 74.28, 41.43 53.57, 95 0 M0 95 C32.84 62.16, 65.67 29.33, 95 0" stroke="#1e1e1e" stroke-width="2" fill="none"></path></g></svg>